<?xml version="1.0" encoding="UTF-8"?>
<svg xmlns="http://www.w3.org/2000/svg" xmlns:xlink="http://www.w3.org/1999/xlink" width="273.89pt" height="91.96pt" viewBox="0 0 273.89 91.96" version="1.1">
<defs>
<clipPath id="clip1">
  <path d="M 80 36 L 125 36 L 125 91.960938 L 80 91.960938 Z M 80 36 "/>
</clipPath>
<clipPath id="clip2">
  <path d="M 127 36 L 172 36 L 172 91.960938 L 127 91.960938 Z M 127 36 "/>
</clipPath>
<clipPath id="clip3">
  <path d="M 181 36 L 222 36 L 222 91.960938 L 181 91.960938 Z M 181 36 "/>
</clipPath>
<clipPath id="clip4">
  <path d="M 231 13 L 273.890625 13 L 273.890625 91.960938 L 231 91.960938 Z M 231 13 "/>
</clipPath>
<clipPath id="clip5">
  <path d="M 0 6 L 73 6 L 73 91.960938 L 0 91.960938 Z M 0 6 "/>
</clipPath>
</defs>
<g id="surface1">
<path style=" stroke:none;fill-rule:nonzero;fill:rgb(13.725281%,12.156677%,12.548828%);fill-opacity:1;" d="M 87.503906 27.628906 C 83.957031 27.628906 81.339844 25.804688 80.320313 22.621094 C 79.917969 21.375 79.722656 19.765625 79.722656 17.695313 C 79.722656 15.625 79.925781 13.957031 80.320313 12.730469 C 81.339844 9.546875 83.957031 7.71875 87.503906 7.71875 C 90.226563 7.71875 92.550781 8.933594 93.726563 10.960938 C 93.855469 11.175781 93.910156 11.402344 93.910156 11.699219 C 93.910156 12.347656 93.402344 12.855469 92.753906 12.855469 C 92.289063 12.855469 91.898438 12.625 91.59375 12.171875 C 90.636719 10.820313 89.332031 10.191406 87.503906 10.191406 C 85.121094 10.191406 83.5 11.347656 82.8125 13.527344 C 82.457031 14.59375 82.3125 15.800781 82.3125 17.695313 C 82.3125 19.5625 82.457031 20.757813 82.808594 21.816406 C 83.5 24.003906 85.121094 25.15625 87.503906 25.15625 C 89.332031 25.15625 90.636719 24.527344 91.597656 23.175781 C 91.894531 22.726563 92.285156 22.492188 92.753906 22.492188 C 93.402344 22.492188 93.910156 23.003906 93.910156 23.652344 C 93.910156 23.949219 93.855469 24.175781 93.722656 24.390625 C 92.550781 26.417969 90.226563 27.628906 87.503906 27.628906 "/>
<path style=" stroke:none;fill-rule:nonzero;fill:rgb(13.725281%,12.156677%,12.548828%);fill-opacity:1;" d="M 103.371094 18.457031 C 99.816406 18.457031 98.300781 19.484375 98.300781 21.886719 C 98.300781 24.621094 100.695313 25.195313 102.707031 25.195313 C 105.886719 25.195313 107.859375 23.6875 107.859375 21.261719 L 107.859375 18.480469 Z M 102.355469 27.628906 C 98.34375 27.628906 95.75 25.375 95.75 21.886719 C 95.75 18.160156 98.347656 16.105469 103.058594 16.105469 L 107.84375 16.105469 L 107.859375 14.753906 C 107.859375 11.484375 106.515625 10.152344 103.214844 10.152344 C 101.574219 10.152344 99.988281 10.742188 99.054688 11.296875 C 98.804688 11.464844 98.488281 11.5625 98.203125 11.5625 C 97.496094 11.5625 97.003906 11.070313 97.003906 10.367188 C 97.003906 9.988281 97.1875 9.617188 97.511719 9.339844 C 98.851563 8.324219 101.023438 7.722656 103.332031 7.722656 C 108.109375 7.722656 110.328125 9.90625 110.328125 14.597656 L 110.328125 22.164063 C 110.328125 23.210938 110.449219 23.5625 110.699219 24.0625 L 111.441406 25.472656 C 111.527344 25.644531 111.625 25.914063 111.625 26.160156 C 111.625 26.886719 111.082031 27.390625 110.308594 27.390625 C 109.796875 27.390625 109.414063 27.148438 109.105469 26.625 L 108.324219 25.328125 C 106.804688 26.941406 105.007813 27.628906 102.355469 27.628906 "/>
<path style=" stroke:none;fill-rule:nonzero;fill:rgb(13.725281%,12.156677%,12.548828%);fill-opacity:1;" d="M 128.375 27.390625 C 127.589844 27.390625 127.101563 26.875 127.101563 26.042969 L 127.101563 15.578125 C 127.101563 11.953125 125.570313 10.1875 122.417969 10.1875 C 119.546875 10.1875 117.539063 12.242188 117.539063 15.1875 L 117.539063 26.042969 C 117.539063 26.875 117.050781 27.390625 116.265625 27.390625 C 115.480469 27.390625 114.992188 26.875 114.992188 26.042969 L 114.992188 9.308594 C 114.992188 8.472656 115.480469 7.953125 116.265625 7.953125 C 117.050781 7.953125 117.539063 8.472656 117.539063 9.308594 L 117.539063 9.976563 C 118.710938 8.496094 120.546875 7.71875 122.886719 7.71875 C 127.121094 7.71875 129.648438 10.46875 129.648438 15.066406 L 129.648438 26.042969 C 129.648438 26.875 129.160156 27.390625 128.375 27.390625 "/>
<path style=" stroke:none;fill-rule:nonzero;fill:rgb(13.725281%,12.156677%,12.548828%);fill-opacity:1;" d="M 140.285156 27.355469 L 139.777344 27.355469 C 136.183594 27.355469 134.78125 25.886719 134.78125 22.125 L 134.78125 10.445313 L 133.230469 10.425781 C 132.484375 10.425781 132 9.972656 132 9.269531 C 132 8.566406 132.484375 8.109375 133.230469 8.109375 L 134.761719 8.109375 L 134.78125 3.3125 C 134.78125 2.476563 135.269531 1.957031 136.054688 1.957031 C 136.839844 1.957031 137.328125 2.476563 137.328125 3.3125 L 137.328125 8.09375 L 140.324219 8.109375 C 141.074219 8.109375 141.558594 8.566406 141.558594 9.269531 C 141.558594 9.972656 141.074219 10.425781 140.324219 10.425781 L 137.347656 10.425781 L 137.328125 22.046875 C 137.328125 24.300781 137.9375 24.882813 140.285156 24.882813 C 141.070313 24.882813 141.597656 25.382813 141.597656 26.121094 C 141.597656 26.859375 141.070313 27.355469 140.285156 27.355469 "/>
<path style=" stroke:none;fill-rule:nonzero;fill:rgb(13.725281%,12.156677%,12.548828%);fill-opacity:1;" d="M 151.019531 10.191406 C 148.722656 10.191406 146.996094 11.410156 146.289063 13.527344 C 145.929688 14.605469 145.792969 15.761719 145.792969 17.65625 C 145.792969 19.578125 145.929688 20.746094 146.289063 21.816406 C 146.996094 23.941406 148.722656 25.15625 151.019531 25.15625 C 153.382813 25.15625 155.074219 23.972656 155.792969 21.816406 C 156.152344 20.738281 156.292969 19.570313 156.292969 17.65625 C 156.292969 15.769531 156.152344 14.609375 155.792969 13.527344 C 155.074219 11.375 153.382813 10.191406 151.019531 10.191406 M 151.019531 27.628906 C 147.503906 27.628906 144.886719 25.804688 143.839844 22.621094 C 143.386719 21.171875 143.203125 19.734375 143.203125 17.65625 C 143.203125 15.601563 143.386719 14.175781 143.839844 12.730469 C 144.886719 9.546875 147.503906 7.71875 151.019531 7.71875 C 154.5625 7.71875 157.191406 9.546875 158.242188 12.730469 C 158.695313 14.183594 158.878906 15.609375 158.878906 17.65625 C 158.878906 19.726563 158.695313 21.164063 158.242188 22.617188 C 157.191406 25.804688 154.5625 27.628906 151.019531 27.628906 "/>
<path style=" stroke:none;fill-rule:nonzero;fill:rgb(13.725281%,12.156677%,12.548828%);fill-opacity:1;" d="M 175.824219 27.390625 C 175.039063 27.390625 174.550781 26.875 174.550781 26.042969 L 174.550781 15.578125 C 174.550781 11.953125 173.019531 10.1875 169.867188 10.1875 C 166.996094 10.1875 164.988281 12.242188 164.988281 15.1875 L 164.988281 26.042969 C 164.988281 26.875 164.5 27.390625 163.714844 27.390625 C 162.929688 27.390625 162.441406 26.875 162.441406 26.042969 L 162.441406 9.308594 C 162.441406 8.472656 162.929688 7.953125 163.714844 7.953125 C 164.5 7.953125 164.988281 8.472656 164.988281 9.308594 L 164.988281 9.976563 C 166.160156 8.496094 167.996094 7.71875 170.335938 7.71875 C 174.570313 7.71875 177.097656 10.46875 177.097656 15.066406 L 177.097656 26.042969 C 177.097656 26.875 176.609375 27.390625 175.824219 27.390625 "/>
<path style=" stroke:none;fill-rule:nonzero;fill:rgb(13.725281%,12.156677%,12.548828%);fill-opacity:1;" d="M 195.035156 10.191406 C 192.777344 10.191406 191.152344 11.335938 190.460938 13.414063 C 190.101563 14.519531 189.960938 15.707031 189.960938 17.65625 C 189.960938 19.65625 190.097656 20.8125 190.460938 21.9375 C 191.152344 24.015625 192.777344 25.15625 195.035156 25.15625 C 197.367188 25.15625 198.960938 24.085938 199.652344 22.054688 C 199.953125 21.074219 200.109375 19.550781 200.109375 17.65625 C 200.109375 15.8125 199.945313 14.261719 199.648438 13.289063 C 198.960938 11.261719 197.367188 10.191406 195.035156 10.191406 M 194.683594 27.628906 C 191.429688 27.628906 189.074219 25.933594 188.050781 22.855469 C 187.5625 21.269531 187.375 19.808594 187.375 17.65625 C 187.375 15.554688 187.570313 14.058594 188.046875 12.496094 C 189.074219 9.414063 191.429688 7.71875 194.683594 7.71875 C 197.210938 7.71875 198.992188 8.46875 200.109375 10.003906 L 200.109375 1.355469 C 200.109375 0.519531 200.597656 0 201.386719 0 C 202.171875 0 202.65625 0.519531 202.65625 1.355469 L 202.65625 26.042969 C 202.65625 26.875 202.171875 27.394531 201.386719 27.394531 C 200.597656 27.394531 200.109375 26.875 200.109375 26.042969 L 200.109375 25.34375 C 198.992188 26.878906 197.207031 27.628906 194.683594 27.628906 "/>
<path style=" stroke:none;fill-rule:nonzero;fill:rgb(13.725281%,12.156677%,12.548828%);fill-opacity:1;" d="M 213.921875 10.109375 C 211.542969 10.109375 209.851563 11.308594 209.148438 13.492188 C 208.914063 14.234375 208.808594 15.035156 208.808594 16.085938 L 219.054688 16.105469 C 219.070313 15.035156 218.96875 14.234375 218.730469 13.492188 C 218.03125 11.308594 216.320313 10.109375 213.921875 10.109375 M 214.15625 27.628906 C 210.441406 27.628906 207.902344 25.882813 206.816406 22.582031 C 206.390625 21.285156 206.21875 19.90625 206.21875 17.65625 C 206.21875 15.445313 206.390625 14.066406 206.816406 12.730469 C 207.851563 9.542969 210.441406 7.71875 213.921875 7.71875 C 217.425781 7.71875 220.027344 9.542969 221.0625 12.730469 C 221.46875 13.957031 221.660156 15.398438 221.660156 17.261719 C 221.660156 17.96875 221.167969 18.457031 220.464844 18.457031 L 208.824219 18.457031 C 208.808594 20.042969 208.894531 20.789063 209.1875 21.664063 C 209.949219 23.949219 211.710938 25.15625 214.273438 25.15625 C 216.3125 25.15625 217.777344 24.542969 219.175781 23.105469 C 219.476563 22.808594 219.796875 22.648438 220.113281 22.648438 C 220.773438 22.648438 221.269531 23.132813 221.269531 23.769531 C 221.269531 24.09375 221.171875 24.375 220.984375 24.609375 C 219.445313 26.554688 217.019531 27.628906 214.15625 27.628906 "/>
<g clip-path="url(#clip1)" clip-rule="nonzero">
<path style=" stroke:none;fill-rule:nonzero;fill:rgb(13.725281%,12.156677%,12.548828%);fill-opacity:1;" d="M 98.257813 87.574219 L 80.484375 41.34375 C 80.257813 40.667969 80.144531 40.214844 80.144531 39.65625 C 80.144531 38.191406 81.15625 36.730469 83.183594 36.730469 C 84.757813 36.730469 85.65625 37.742188 86.109375 38.980469 L 102.304688 81.273438 L 102.417969 81.273438 L 118.277344 38.980469 C 118.726563 37.742188 119.628906 36.730469 121.203125 36.730469 C 123.226563 36.730469 124.238281 38.191406 124.238281 39.65625 C 124.238281 40.214844 124.128906 40.667969 123.902344 41.34375 L 106.132813 87.574219 C 105.117188 90.382813 104.105469 91.285156 102.191406 91.285156 C 100.28125 91.285156 99.265625 90.382813 98.257813 87.574219 "/>
</g>
<g clip-path="url(#clip2)" clip-rule="nonzero">
<path style=" stroke:none;fill-rule:nonzero;fill:rgb(13.725281%,12.156677%,12.548828%);fill-opacity:1;" d="M 161.761719 74.300781 L 161.761719 66.3125 C 161.761719 65.863281 161.535156 65.640625 161.085938 65.640625 L 148.265625 65.640625 C 137.578125 65.640625 133.078125 68.902344 133.078125 76.097656 C 133.078125 82.738281 137.691406 86.222656 146.351563 86.222656 C 155.574219 86.222656 161.761719 81.722656 161.761719 74.300781 M 171.324219 88.363281 C 171.324219 90.046875 170.085938 91.285156 168.171875 91.285156 C 166.933594 91.285156 166.035156 90.722656 165.25 89.371094 L 162.664063 85.097656 L 162.4375 85.097656 C 158.5 89.488281 153.773438 91.960938 145.339844 91.960938 C 134.992188 91.960938 127.007813 86.335938 127.007813 76.097656 C 127.007813 65.527344 134.429688 60.125 147.363281 60.125 L 161.085938 60.125 C 161.535156 60.125 161.761719 59.902344 161.761719 59.453125 L 161.761719 55.628906 C 161.761719 46.742188 158.386719 41.792969 147.816406 41.792969 C 143.199219 41.792969 138.589844 43.367188 135.554688 45.167969 C 134.878906 45.617188 134.089844 45.839844 133.417969 45.839844 C 131.726563 45.839844 130.605469 44.71875 130.605469 43.027344 C 130.605469 42.128906 131.058594 41.230469 131.84375 40.554688 C 135.105469 38.082031 140.839844 36.054688 148.148438 36.054688 C 161.425781 36.054688 167.609375 42.015625 167.609375 55.175781 L 167.609375 76.886719 C 167.609375 79.925781 167.949219 81.050781 168.734375 82.621094 L 170.871094 86.671875 C 171.097656 87.121094 171.324219 87.796875 171.324219 88.363281 "/>
</g>
<g clip-path="url(#clip3)" clip-rule="nonzero">
<path style=" stroke:none;fill-rule:nonzero;fill:rgb(13.725281%,12.156677%,12.548828%);fill-opacity:1;" d="M 215.410156 88.023438 L 215.410156 84.3125 L 215.296875 84.3125 C 212.261719 89.148438 207.199219 91.960938 199.664063 91.960938 C 187.851563 91.960938 181.105469 84.535156 181.105469 71.488281 L 181.105469 39.992188 C 181.105469 37.855469 182.34375 36.730469 184.140625 36.730469 C 185.941406 36.730469 187.179688 37.855469 187.179688 39.992188 L 187.179688 70.023438 C 187.179688 80.714844 191.675781 86.109375 201.011719 86.109375 C 209.113281 86.109375 215.410156 80.375 215.410156 71.152344 L 215.410156 39.992188 C 215.410156 37.855469 216.648438 36.730469 218.449219 36.730469 C 220.25 36.730469 221.488281 37.855469 221.488281 39.992188 L 221.488281 88.023438 C 221.488281 90.160156 220.25 91.285156 218.449219 91.285156 C 216.648438 91.285156 215.410156 90.160156 215.410156 88.023438 "/>
</g>
<g clip-path="url(#clip4)" clip-rule="nonzero">
<path style=" stroke:none;fill-rule:nonzero;fill:rgb(13.725281%,12.156677%,12.548828%);fill-opacity:1;" d="M 266.464844 76.773438 C 267.367188 73.851563 267.816406 69.351563 267.816406 63.949219 C 267.816406 58.664063 267.367188 54.164063 266.464844 51.242188 C 264.328125 44.941406 259.378906 41.90625 252.632813 41.90625 C 245.769531 41.90625 240.933594 45.503906 238.90625 51.578125 C 237.78125 55.066406 237.445313 58.664063 237.445313 63.949219 C 237.445313 69.351563 237.78125 72.949219 238.90625 76.4375 C 240.933594 82.511719 245.769531 86.109375 252.632813 86.109375 C 259.378906 86.109375 264.328125 83.074219 266.464844 76.773438 M 267.816406 88.023438 L 267.816406 84.085938 L 267.703125 84.085938 C 265.117188 88.695313 260.390625 91.960938 251.617188 91.960938 C 242.507813 91.960938 235.984375 87.121094 233.171875 78.6875 C 231.820313 74.300781 231.261719 70.136719 231.261719 63.949219 C 231.261719 57.878906 231.820313 53.714844 233.171875 49.328125 C 235.984375 40.890625 242.507813 36.054688 251.617188 36.054688 C 260.390625 36.054688 265.117188 39.316406 267.703125 43.929688 L 267.816406 43.929688 L 267.816406 17.160156 C 267.816406 15.019531 269.054688 13.898438 270.855469 13.898438 C 272.652344 13.898438 273.890625 15.019531 273.890625 17.160156 L 273.890625 88.023438 C 273.890625 90.160156 272.652344 91.285156 270.855469 91.285156 C 269.054688 91.285156 267.816406 90.160156 267.816406 88.023438 "/>
</g>
<g clip-path="url(#clip5)" clip-rule="nonzero">
<path style=" stroke:none;fill-rule:nonzero;fill:rgb(13.725281%,12.156677%,12.548828%);fill-opacity:1;" d="M 70.113281 16.183594 C 69.964844 22.703125 69.570313 28.664063 68.933594 33.894531 C 68.59375 36.570313 68.097656 39.21875 67.414063 41.953125 L 5.21875 41.953125 C 4.539063 39.210938 4.046875 36.566406 3.714844 33.890625 C 2.859375 27.296875 2.558594 20.621094 2.457031 16.179688 C 2.382813 13.046875 2.394531 10.550781 2.414063 9.179688 L 70.144531 9.179688 C 70.160156 10.550781 70.175781 13.046875 70.113281 16.183594 Z M 65.226563 49.128906 L 61.757813 44.355469 L 66.777344 44.355469 C 66.320313 45.957031 65.796875 47.546875 65.226563 49.128906 Z M 22.375 44.355469 L 47.09375 78.378906 C 46.304688 79.273438 45.492188 80.175781 44.652344 81.078125 L 17.972656 44.355469 Z M 28.628906 44.355469 L 50.464844 74.410156 C 49.707031 75.34375 48.921875 76.285156 48.109375 77.226563 L 24.226563 44.355469 Z M 34.882813 44.355469 L 53.6875 70.234375 C 52.960938 71.21875 52.210938 72.203125 51.433594 73.191406 L 30.484375 44.355469 Z M 41.140625 44.355469 L 56.753906 65.847656 C 56.074219 66.882813 55.355469 67.921875 54.617188 68.960938 L 36.738281 44.355469 Z M 47.394531 44.355469 L 59.613281 61.171875 C 58.980469 62.277344 58.316406 63.382813 57.621094 64.488281 L 42.992188 44.355469 Z M 53.648438 44.355469 L 62.253906 56.199219 C 61.679688 57.390625 61.070313 58.574219 60.429688 59.746094 L 49.25 44.355469 Z M 59.902344 44.355469 L 64.59375 50.8125 C 64.09375 52.097656 63.554688 53.375 62.976563 54.644531 L 55.503906 44.355469 Z M 41.109375 84.808594 L 11.71875 44.355469 L 16.117188 44.355469 L 43.613281 82.195313 C 43.40625 82.410156 43.214844 82.625 43.007813 82.839844 C 42.320313 83.542969 41.691406 84.199219 41.109375 84.808594 Z M 38.324219 87.636719 C 37.988281 87.953125 37.707031 88.199219 37.460938 88.398438 L 6.121094 45.261719 C 6.03125 44.960938 5.9375 44.65625 5.851563 44.355469 L 9.863281 44.355469 L 40.054688 85.90625 C 39.414063 86.566406 38.832031 87.15625 38.324219 87.636719 Z M 31 84.296875 L 29.625 82.847656 C 22.128906 75.058594 16.4375 67.539063 12.238281 59.871094 C 10.476563 56.660156 8.964844 53.355469 7.707031 49.996094 L 36.03125 88.980469 C 35.691406 88.816406 35.140625 88.449219 34.265625 87.628906 C 33.367188 86.792969 32.269531 85.636719 31 84.296875 Z M 72.523438 7.945313 C 72.503906 7.296875 71.972656 6.777344 71.324219 6.777344 L 1.234375 6.777344 C 0.582031 6.777344 0.0507813 7.296875 0.0351563 7.945313 C 0.03125 7.980469 -0.0546875 11.347656 0.0585938 16.238281 C 0.164063 20.734375 0.46875 27.503906 1.332031 34.191406 C 1.652344 36.765625 2.128906 39.324219 2.757813 41.953125 L 2.734375 41.953125 L 3.121094 43.457031 C 4.683594 49.476563 7.042969 55.386719 10.132813 61.023438 C 14.4375 68.882813 20.25 76.566406 27.894531 84.507813 L 29.257813 85.945313 C 30.554688 87.316406 31.675781 88.5 32.628906 89.382813 C 34.128906 90.789063 35.207031 91.421875 36.238281 91.488281 L 36.320313 91.496094 L 36.398438 91.488281 C 37.429688 91.421875 38.46875 90.808594 39.972656 89.382813 C 40.769531 88.628906 41.6875 87.671875 42.75 86.5625 C 43.355469 85.933594 44.007813 85.25 44.734375 84.507813 C 52.378906 76.515625 58.179688 68.835938 62.464844 61.027344 C 65.570313 55.382813 67.9375 49.472656 69.507813 43.460938 C 69.507813 43.457031 69.507813 43.457031 69.507813 43.457031 C 69.511719 43.457031 69.511719 43.453125 69.511719 43.449219 L 69.902344 41.953125 L 69.878906 41.953125 C 70.503906 39.339844 70.992188 36.738281 71.316406 34.1875 C 71.960938 28.878906 72.363281 22.835938 72.511719 16.234375 C 72.609375 11.34375 72.523438 7.980469 72.523438 7.945313 "/>
</g>
<path style=" stroke:none;fill-rule:nonzero;fill:rgb(13.725281%,12.156677%,12.548828%);fill-opacity:1;" d="M 14.894531 14.613281 C 14.894531 14.28125 15.09375 14.085938 15.378906 14.085938 C 15.667969 14.085938 15.875 14.28125 15.875 14.613281 L 15.875 20.640625 C 15.875 20.6875 15.898438 20.707031 15.941406 20.707031 L 19.1875 20.707031 C 19.484375 20.707031 19.671875 20.90625 19.671875 21.160156 C 19.671875 21.421875 19.484375 21.621094 19.1875 21.621094 L 15.367188 21.621094 C 15.070313 21.621094 14.894531 21.433594 14.894531 21.136719 L 14.894531 14.613281 "/>
<path style=" stroke:none;fill-rule:nonzero;fill:rgb(13.725281%,12.156677%,12.548828%);fill-opacity:1;" d="M 21.472656 14.613281 C 21.472656 14.28125 21.671875 14.085938 21.96875 14.085938 C 22.253906 14.085938 22.453125 14.28125 22.453125 14.613281 L 22.453125 21.148438 C 22.453125 21.476563 22.253906 21.675781 21.96875 21.675781 C 21.671875 21.675781 21.472656 21.476563 21.472656 21.148438 L 21.472656 14.613281 "/>
<path style=" stroke:none;fill-rule:nonzero;fill:rgb(13.725281%,12.156677%,12.548828%);fill-opacity:1;" d="M 26.003906 20.730469 L 27.753906 20.730469 C 28.644531 20.730469 29.128906 20.246094 29.128906 19.496094 C 29.128906 18.757813 28.644531 18.265625 27.753906 18.265625 L 26.003906 18.265625 C 25.960938 18.265625 25.941406 18.289063 25.941406 18.332031 L 25.941406 20.664063 C 25.941406 20.707031 25.960938 20.730469 26.003906 20.730469 Z M 27.699219 17.375 C 28.523438 17.375 29.007813 16.902344 29.007813 16.207031 C 29.007813 15.492188 28.523438 15.03125 27.699219 15.03125 L 26.003906 15.03125 C 25.960938 15.03125 25.941406 15.054688 25.941406 15.097656 L 25.941406 17.308594 C 25.941406 17.351563 25.960938 17.375 26.003906 17.375 Z M 24.960938 14.578125 C 24.960938 14.316406 25.125 14.140625 25.402344 14.140625 L 27.722656 14.140625 C 29.21875 14.140625 29.976563 14.910156 29.976563 16.097656 C 29.976563 16.96875 29.582031 17.503906 28.964844 17.738281 L 28.964844 17.757813 C 29.503906 17.902344 30.109375 18.507813 30.109375 19.488281 C 30.109375 20.894531 29.207031 21.621094 27.6875 21.621094 L 25.402344 21.621094 C 25.125 21.621094 24.960938 21.457031 24.960938 21.179688 L 24.960938 14.578125 "/>
<path style=" stroke:none;fill-rule:nonzero;fill:rgb(13.725281%,12.156677%,12.548828%);fill-opacity:1;" d="M 32.265625 14.578125 C 32.265625 14.316406 32.429688 14.140625 32.703125 14.140625 L 36.554688 14.140625 C 36.851563 14.140625 37.039063 14.339844 37.039063 14.589844 C 37.039063 14.855469 36.851563 15.054688 36.554688 15.054688 L 33.308594 15.054688 C 33.265625 15.054688 33.242188 15.074219 33.242188 15.117188 L 33.242188 17.320313 C 33.242188 17.363281 33.265625 17.382813 33.308594 17.382813 L 36.015625 17.382813 C 36.3125 17.382813 36.5 17.582031 36.5 17.835938 C 36.5 18.101563 36.3125 18.296875 36.015625 18.296875 L 33.308594 18.296875 C 33.265625 18.296875 33.242188 18.320313 33.242188 18.363281 L 33.242188 20.640625 C 33.242188 20.6875 33.265625 20.707031 33.308594 20.707031 L 36.554688 20.707031 C 36.851563 20.707031 37.039063 20.90625 37.039063 21.160156 C 37.039063 21.421875 36.851563 21.621094 36.554688 21.621094 L 32.703125 21.621094 C 32.429688 21.621094 32.265625 21.445313 32.265625 21.179688 L 32.265625 14.578125 "/>
<path style=" stroke:none;fill-rule:nonzero;fill:rgb(13.725281%,12.156677%,12.548828%);fill-opacity:1;" d="M 43.296875 16.296875 C 43.296875 15.515625 42.78125 15.054688 41.910156 15.054688 L 40.164063 15.054688 C 40.117188 15.054688 40.097656 15.074219 40.097656 15.117188 L 40.097656 17.472656 C 40.097656 17.515625 40.117188 17.539063 40.164063 17.539063 L 41.910156 17.539063 C 42.78125 17.539063 43.296875 17.078125 43.296875 16.296875 Z M 39.117188 21.148438 L 39.117188 14.578125 C 39.117188 14.316406 39.28125 14.140625 39.558594 14.140625 L 41.902344 14.140625 C 43.351563 14.140625 44.265625 14.988281 44.265625 16.296875 C 44.265625 17.296875 43.738281 18.023438 42.847656 18.308594 L 44.1875 20.949219 C 44.234375 21.039063 44.253906 21.113281 44.253906 21.214844 C 44.253906 21.457031 44.078125 21.675781 43.78125 21.675781 C 43.585938 21.675781 43.429688 21.574219 43.308594 21.367188 L 41.835938 18.453125 L 40.164063 18.453125 C 40.117188 18.453125 40.097656 18.472656 40.097656 18.519531 L 40.097656 21.148438 C 40.097656 21.476563 39.898438 21.675781 39.613281 21.675781 C 39.316406 21.675781 39.117188 21.476563 39.117188 21.148438 "/>
<path style=" stroke:none;fill-rule:nonzero;fill:rgb(13.725281%,12.156677%,12.548828%);fill-opacity:1;" d="M 50.820313 14.140625 C 51.117188 14.140625 51.304688 14.339844 51.304688 14.601563 C 51.304688 14.855469 51.117188 15.054688 50.820313 15.054688 L 49.09375 15.054688 C 49.050781 15.054688 49.027344 15.074219 49.027344 15.117188 L 49.027344 21.148438 C 49.027344 21.476563 48.832031 21.675781 48.542969 21.675781 C 48.246094 21.675781 48.050781 21.476563 48.050781 21.148438 L 48.050781 15.117188 C 48.050781 15.074219 48.027344 15.054688 47.984375 15.054688 L 46.257813 15.054688 C 45.960938 15.054688 45.773438 14.855469 45.773438 14.601563 C 45.773438 14.339844 45.960938 14.140625 46.257813 14.140625 L 50.820313 14.140625 "/>
<path style=" stroke:none;fill-rule:nonzero;fill:rgb(13.725281%,12.156677%,12.548828%);fill-opacity:1;" d="M 55.847656 11.828125 C 55.925781 11.742188 56.015625 11.6875 56.144531 11.6875 C 56.355469 11.6875 56.519531 11.839844 56.519531 12.050781 C 56.519531 12.160156 56.476563 12.257813 56.410156 12.335938 L 55.652344 13.171875 C 55.550781 13.28125 55.453125 13.335938 55.320313 13.335938 C 55.132813 13.335938 54.96875 13.183594 54.96875 12.984375 C 54.96875 12.875 55.011719 12.777344 55.089844 12.6875 Z M 53.078125 14.578125 C 53.078125 14.316406 53.242188 14.140625 53.515625 14.140625 L 57.367188 14.140625 C 57.664063 14.140625 57.851563 14.339844 57.851563 14.589844 C 57.851563 14.855469 57.664063 15.054688 57.367188 15.054688 L 54.121094 15.054688 C 54.078125 15.054688 54.054688 15.074219 54.054688 15.117188 L 54.054688 17.320313 C 54.054688 17.363281 54.078125 17.382813 54.121094 17.382813 L 56.828125 17.382813 C 57.125 17.382813 57.3125 17.582031 57.3125 17.835938 C 57.3125 18.101563 57.125 18.296875 56.828125 18.296875 L 54.121094 18.296875 C 54.078125 18.296875 54.054688 18.320313 54.054688 18.363281 L 54.054688 20.640625 C 54.054688 20.6875 54.078125 20.707031 54.121094 20.707031 L 57.367188 20.707031 C 57.664063 20.707031 57.851563 20.90625 57.851563 21.160156 C 57.851563 21.421875 57.664063 21.621094 57.367188 21.621094 L 53.515625 21.621094 C 53.242188 21.621094 53.078125 21.445313 53.078125 21.179688 L 53.078125 14.578125 "/>
<path style=" stroke:none;fill-rule:nonzero;fill:rgb(13.725281%,12.156677%,12.548828%);fill-opacity:1;" d="M 32.265625 24.066406 C 32.265625 23.886719 32.375 23.765625 32.5625 23.765625 L 35.246094 23.765625 C 35.449219 23.765625 35.574219 23.929688 35.574219 24.101563 C 35.574219 24.28125 35.449219 24.445313 35.246094 24.445313 L 33.03125 24.445313 C 33.003906 24.445313 32.988281 24.460938 32.988281 24.488281 L 32.988281 25.792969 C 32.988281 25.820313 33.003906 25.835938 33.03125 25.835938 L 34.878906 25.835938 C 35.082031 25.835938 35.207031 26 35.207031 26.171875 C 35.207031 26.351563 35.082031 26.515625 34.878906 26.515625 L 33.03125 26.515625 C 33.003906 26.515625 32.988281 26.53125 32.988281 26.558594 L 32.988281 27.914063 C 32.988281 27.945313 33.003906 27.960938 33.03125 27.960938 L 35.246094 27.960938 C 35.449219 27.960938 35.574219 28.121094 35.574219 28.296875 C 35.574219 28.476563 35.449219 28.636719 35.246094 28.636719 L 32.5625 28.636719 C 32.375 28.636719 32.265625 28.519531 32.265625 28.339844 L 32.265625 24.066406 "/>
<path style=" stroke:none;fill-rule:nonzero;fill:rgb(13.725281%,12.156677%,12.548828%);fill-opacity:1;" d="M 40.222656 23.765625 C 40.425781 23.765625 40.582031 23.929688 40.582031 24.109375 C 40.582031 24.28125 40.425781 24.445313 40.222656 24.445313 L 39.046875 24.445313 C 39.015625 24.445313 39 24.460938 39 24.488281 L 39 28.289063 C 39 28.511719 38.839844 28.675781 38.644531 28.675781 C 38.441406 28.675781 38.277344 28.511719 38.277344 28.289063 L 38.277344 24.488281 C 38.277344 24.460938 38.261719 24.445313 38.234375 24.445313 L 37.054688 24.445313 C 36.851563 24.445313 36.695313 24.28125 36.695313 24.109375 C 36.695313 23.929688 36.851563 23.765625 37.054688 23.765625 L 40.222656 23.765625 "/>
<path style=" stroke:none;fill-rule:nonzero;fill:rgb(13.725281%,12.156677%,12.548828%);fill-opacity:1;" d="M 22.949219 32.988281 C 22.949219 32.171875 22.410156 31.667969 21.484375 31.667969 L 19.8125 31.667969 C 19.769531 31.667969 19.746094 31.6875 19.746094 31.730469 L 19.746094 34.242188 C 19.746094 34.285156 19.769531 34.308594 19.8125 34.308594 L 21.484375 34.308594 C 22.410156 34.308594 22.949219 33.800781 22.949219 32.988281 Z M 18.765625 31.191406 C 18.765625 30.929688 18.933594 30.753906 19.207031 30.753906 L 21.519531 30.753906 C 23.015625 30.753906 23.917969 31.65625 23.917969 32.988281 C 23.917969 34.316406 23.015625 35.21875 21.519531 35.21875 L 19.8125 35.21875 C 19.769531 35.21875 19.746094 35.242188 19.746094 35.285156 L 19.746094 37.761719 C 19.746094 38.089844 19.546875 38.289063 19.261719 38.289063 C 18.964844 38.289063 18.765625 38.089844 18.765625 37.761719 L 18.765625 31.191406 "/>
<path style=" stroke:none;fill-rule:nonzero;fill:rgb(13.725281%,12.156677%,12.548828%);fill-opacity:1;" d="M 28.855469 35.59375 L 27.667969 32.195313 L 27.632813 32.195313 L 26.421875 35.59375 Z M 24.707031 37.617188 L 27.007813 31.25 C 27.128906 30.894531 27.316406 30.699219 27.644531 30.699219 C 27.976563 30.699219 28.183594 30.894531 28.304688 31.25 L 30.570313 37.617188 C 30.59375 37.683594 30.617188 37.761719 30.617188 37.839844 C 30.617188 38.113281 30.40625 38.289063 30.152344 38.289063 C 29.933594 38.289063 29.757813 38.167969 29.679688 37.9375 L 29.175781 36.496094 L 26.105469 36.496094 L 25.597656 37.9375 C 25.523438 38.167969 25.34375 38.289063 25.125 38.289063 C 24.871094 38.289063 24.664063 38.113281 24.664063 37.839844 C 24.664063 37.761719 24.683594 37.683594 24.707031 37.617188 "/>
<path style=" stroke:none;fill-rule:nonzero;fill:rgb(13.725281%,12.156677%,12.548828%);fill-opacity:1;" d="M 36.015625 30.753906 C 36.3125 30.753906 36.5 30.949219 36.5 31.214844 C 36.5 31.46875 36.3125 31.667969 36.015625 31.667969 L 34.289063 31.667969 C 34.246094 31.667969 34.222656 31.6875 34.222656 31.730469 L 34.222656 37.761719 C 34.222656 38.089844 34.023438 38.289063 33.738281 38.289063 C 33.441406 38.289063 33.242188 38.089844 33.242188 37.761719 L 33.242188 31.730469 C 33.242188 31.6875 33.222656 31.667969 33.179688 31.667969 L 31.449219 31.667969 C 31.152344 31.667969 30.964844 31.46875 30.964844 31.214844 C 30.964844 30.949219 31.152344 30.753906 31.449219 30.753906 L 36.015625 30.753906 "/>
<path style=" stroke:none;fill-rule:nonzero;fill:rgb(13.725281%,12.156677%,12.548828%);fill-opacity:1;" d="M 42.449219 32.910156 C 42.449219 32.128906 41.933594 31.667969 41.066406 31.667969 L 39.316406 31.667969 C 39.273438 31.667969 39.25 31.6875 39.25 31.730469 L 39.25 34.085938 C 39.25 34.128906 39.273438 34.152344 39.316406 34.152344 L 41.066406 34.152344 C 41.933594 34.152344 42.449219 33.691406 42.449219 32.910156 Z M 38.269531 37.761719 L 38.269531 31.191406 C 38.269531 30.929688 38.433594 30.753906 38.710938 30.753906 L 41.054688 30.753906 C 42.507813 30.753906 43.417969 31.601563 43.417969 32.910156 C 43.417969 33.910156 42.890625 34.636719 42 34.921875 L 43.34375 37.5625 C 43.386719 37.652344 43.40625 37.726563 43.40625 37.828125 C 43.40625 38.070313 43.230469 38.289063 42.933594 38.289063 C 42.738281 38.289063 42.582031 38.191406 42.460938 37.980469 L 40.988281 35.066406 L 39.316406 35.066406 C 39.273438 35.066406 39.25 35.085938 39.25 35.132813 L 39.25 37.761719 C 39.25 38.089844 39.050781 38.289063 38.765625 38.289063 C 38.46875 38.289063 38.269531 38.089844 38.269531 37.761719 "/>
<path style=" stroke:none;fill-rule:nonzero;fill:rgb(13.725281%,12.156677%,12.548828%);fill-opacity:1;" d="M 45.71875 31.226563 C 45.71875 30.894531 45.914063 30.699219 46.210938 30.699219 C 46.5 30.699219 46.695313 30.894531 46.695313 31.226563 L 46.695313 37.761719 C 46.695313 38.089844 46.5 38.289063 46.210938 38.289063 C 45.914063 38.289063 45.71875 38.089844 45.71875 37.761719 L 45.71875 31.226563 "/>
<path style=" stroke:none;fill-rule:nonzero;fill:rgb(13.725281%,12.156677%,12.548828%);fill-opacity:1;" d="M 49.203125 31.191406 C 49.203125 30.929688 49.371094 30.753906 49.644531 30.753906 L 53.496094 30.753906 C 53.792969 30.753906 53.980469 30.949219 53.980469 31.203125 C 53.980469 31.46875 53.792969 31.667969 53.496094 31.667969 L 50.25 31.667969 C 50.207031 31.667969 50.183594 31.6875 50.183594 31.730469 L 50.183594 33.933594 C 50.183594 33.976563 50.207031 34 50.25 34 L 52.957031 34 C 53.253906 34 53.441406 34.195313 53.441406 34.449219 C 53.441406 34.714844 53.253906 34.910156 52.957031 34.910156 L 50.25 34.910156 C 50.207031 34.910156 50.183594 34.933594 50.183594 34.976563 L 50.183594 37.253906 C 50.183594 37.300781 50.207031 37.320313 50.25 37.320313 L 53.496094 37.320313 C 53.792969 37.320313 53.980469 37.519531 53.980469 37.773438 C 53.980469 38.035156 53.792969 38.234375 53.496094 38.234375 L 49.644531 38.234375 C 49.371094 38.234375 49.203125 38.058594 49.203125 37.792969 L 49.203125 31.191406 "/>
</g>
</svg>
